<svg xmlns="http://www.w3.org/2000/svg" width="32" height="32" viewBox="0 0 32 32">
  <path d="M16 1L29 6.5V15C29 22.5 23.5 28 16 31 8.5 28 3 22.5 3 15V6.5Z" fill="#0f0f1a" stroke="#a78bfa" stroke-width="1.2" stroke-linejoin="round"/>
  <g transform="translate(7.5,6) scale(0.13)">
    <path fill="#a78bfa" d="M60.66 0h3.76c18.25 10.62 36.57 21.12 54.83 31.72 1.99 1.29 4.29 2.46 5.47 4.62.62 2.83.34 5.76.39 8.64-.04 18.65-.03 37.3 0 55.95-.04 1.91.03 3.86-.38 5.75-1.2 1.86-3.23 2.94-5.05 4.09-15.65 8.95-31.23 18.03-46.83 27.06-3.32 1.85-6.49 4.08-10.11 5.34-2.23-.32-4.17-1.6-6.12-2.63-15.81-9.32-31.8-18.32-47.62-27.62C5.85 111.16 2.79 109.23 0 106.93V36.1c3.83-3.78 8.81-5.98 13.34-8.77C29.1 18.19 44.82 8.98 60.66 0z"/>
    <path fill="#0f0f1a" d="M5.62 38.04c4.45-.51 8.92-.02 13.37-.17 27.36-.02 54.71-.02 82.07 0 6.17.04 12.35-.22 18.51.27-.73 2.28-1.68 4.48-2.92 6.53C99.93 73.92 83.07 103.08 66.24 132.27c-.95 1.71-2.06 3.33-3.23 5.1-.29-1.73-.47-3.48-.47-5.24-.03-15.64.03-31.29 0-46.93-.05-4.57.31-9.18-.5-13.7-15.55-9.41-31.45-18.24-47-27.5-3.08-1.97-6.68-3.16-9.42-5.96z"/>
  </g>
</svg>
